# xmcd CD database file
#
# Track frame offsets:
#	150
#	26016
#	71167
#	118283
#	171427
#	211562
#	242537
#
# Disc length: 3749 seconds
#
# Revision: 0
# Processed by: cddbd v1.5.1PL2 Copyright (c) Steve Scherf et al.
# Submitted via: CDex 1.50Beta7
#
DISCID=600ea307
DTITLE=Charlie Mariano - R.A.Ramamani - Om Keshav
DYEAR=2005
DGENRE=Jazz
TTITLE0=Shantaakaaram
TTITLE1=Krishna Hare
TTITLE2=Guru'v Govinda
TTITLE3=Radhe Shyam
TTITLE4=Margosa (Neem Tree)
TTITLE5=Bhajana Binare
TTITLE6=Om Keshav - Shanthi (Peace)
EXTD=YEAR: 2005
EXTT0=
EXTT1=
EXTT2=
EXTT3=
EXTT4=
EXTT5=
EXTT6=
PLAYORDER=
